<svg width="36" height="36" viewBox="0 0 36 36" fill="none" xmlns="http://www.w3.org/2000/svg">
<g id="instagram-seeklogo 1" clip-path="url(#clip0_87_176)">
<g id="Group">
<path id="Vector" d="M18 3.24331C22.8062 3.24331 23.3754 3.2616 25.2735 3.3482C27.0285 3.4283 27.9815 3.72153 28.6159 3.96797C29.456 4.2945 30.0557 4.68462 30.6855 5.31446C31.3154 5.9443 31.7055 6.54399 32.032 7.38412C32.2785 8.01846 32.5717 8.97154 32.6518 10.7265C32.7384 12.6246 32.7567 13.1938 32.7567 18C32.7567 22.8063 32.7384 23.3755 32.6518 25.2735C32.5717 27.0285 32.2785 27.9816 32.032 28.616C31.7055 29.4561 31.3154 30.0558 30.6855 30.6856C30.0557 31.3155 29.456 31.7056 28.6159 32.032C27.9815 32.2785 27.0285 32.5718 25.2735 32.6519C23.3757 32.7385 22.8065 32.7568 18 32.7568C13.1934 32.7568 12.6242 32.7385 10.7265 32.6519C8.97147 32.5718 8.01839 32.2785 7.38412 32.032C6.54392 31.7056 5.94423 31.3155 5.31439 30.6856C4.68455 30.0558 4.29443 29.4561 3.96797 28.616C3.72146 27.9816 3.42822 27.0285 3.34813 25.2736C3.26153 23.3755 3.24324 22.8063 3.24324 18C3.24324 13.1938 3.26153 12.6246 3.34813 10.7265C3.42822 8.97155 3.72146 8.01846 3.96797 7.38412C4.29443 6.54399 4.68455 5.9443 5.31439 5.31446C5.94423 4.68462 6.54392 4.2945 7.38412 3.96797C8.01839 3.72153 8.97147 3.4283 10.7264 3.3482C12.6245 3.2616 13.1937 3.24331 18 3.24331ZM18 0C13.1114 0 12.4985 0.0207208 10.5786 0.10832C8.66266 0.195776 7.35425 0.500015 6.20924 0.945012C5.02559 1.40501 4.02177 2.02049 3.0211 3.02117C2.02042 4.02184 1.40494 5.02566 0.944941 6.20932C0.499943 7.35432 0.195705 8.66273 0.108248 10.5787C0.0206494 12.4985 0 13.1115 0 18C0 22.8886 0.0206494 23.5016 0.108248 25.4214C0.195705 27.3373 0.499943 28.6458 0.944941 29.7908C1.40494 30.9743 2.02042 31.9782 3.0211 32.9789C4.02177 33.9796 5.02559 34.5951 6.20924 35.0551C7.35425 35.5001 8.66266 35.8043 10.5786 35.8918C12.4985 35.9794 13.1114 36 18 36C22.8885 36 23.5015 35.9794 25.4213 35.8918C27.3373 35.8043 28.6457 35.5001 29.7907 35.0551C30.9743 34.5951 31.9782 33.9796 32.9788 32.9789C33.9795 31.9782 34.595 30.9744 35.055 29.7908C35.5 28.6458 35.8042 27.3373 35.8917 25.4214C35.9793 23.5016 36 22.8886 36 18C36 13.1115 35.9793 12.4985 35.8917 10.5787C35.8042 8.66273 35.5 7.35432 35.055 6.20932C34.595 5.02566 33.9795 4.02184 32.9788 3.02117C31.9782 2.02049 30.9743 1.40501 29.7907 0.945012C28.6457 0.500015 27.3373 0.195776 25.4213 0.10832C23.5015 0.0207208 22.8885 0 18 0ZM18 8.75676C12.8951 8.75676 8.75669 12.8951 8.75669 18C8.75669 23.1049 12.8951 27.2433 18 27.2433C23.1049 27.2433 27.2432 23.1049 27.2432 18C27.2432 12.8951 23.1049 8.75676 18 8.75676ZM18 24.0001C14.6863 24.0001 11.9999 21.3137 11.9999 18C11.9999 14.6863 14.6863 12 18 12C21.3137 12 24 14.6863 24 18C24 21.3137 21.3137 24.0001 18 24.0001ZM29.7684 8.39158C29.7684 9.58452 28.8014 10.5516 27.6084 10.5516C26.4155 10.5516 25.4484 9.58452 25.4484 8.39158C25.4484 7.19863 26.4155 6.23161 27.6084 6.23161C28.8014 6.23161 29.7684 7.19863 29.7684 8.39158Z" fill="#FED6DF"/>
</g>
</g>
<defs>
<clipPath id="clip0_87_176">
<rect width="36" height="36" fill="white"/>
</clipPath>
</defs>
</svg>
