<svg width="35" height="46" viewBox="0 0 35 46" fill="none" xmlns="http://www.w3.org/2000/svg">
<g clip-path="url(#clip0_512_105)">
<path d="M20.919 0.267269H14.1319C12.8995 0.267269 11.9004 1.38698 11.9004 2.7682V8.79862C11.9004 10.1798 12.8995 11.2996 14.1319 11.2996H20.919C22.1514 11.2996 23.1505 10.1798 23.1505 8.79862V2.7682C23.1505 1.38698 22.1514 0.267269 20.919 0.267269Z" fill="#FED6DF"/>
<path d="M20.919 11.8341H14.1319C12.8995 11.8341 11.9004 12.9538 11.9004 14.335V20.3654C11.9004 21.7467 12.8995 22.8664 14.1319 22.8664H20.919C22.1514 22.8664 23.1505 21.7467 23.1505 20.3654V14.335C23.1505 12.9538 22.1514 11.8341 20.919 11.8341Z" fill="#FED6DF"/>
<path d="M20.919 23.4009H14.1319C12.8995 23.4009 11.9004 24.5206 11.9004 25.9018V31.9322C11.9004 33.3135 12.8995 34.4332 14.1319 34.4332H20.919C22.1514 34.4332 23.1505 33.3135 23.1505 31.9322V25.9018C23.1505 24.5206 22.1514 23.4009 20.919 23.4009Z" fill="#FED6DF"/>
<path d="M20.919 34.9677H14.1319C12.8995 34.9677 11.9004 36.0874 11.9004 37.4687V43.4991C11.9004 44.8803 12.8995 46 14.1319 46H20.919C22.1514 46 23.1505 44.8803 23.1505 43.4991V37.4687C23.1505 36.0874 22.1514 34.9677 20.919 34.9677Z" fill="#FED6DF"/>
<path d="M32.7686 0.267269H25.9815C24.7491 0.267269 23.75 1.38698 23.75 2.7682V8.79862C23.75 10.1798 24.7491 11.2996 25.9815 11.2996H32.7686C34.0011 11.2996 35.0001 10.1798 35.0001 8.79862V2.7682C35.0001 1.38698 34.0011 0.267269 32.7686 0.267269Z" fill="#FED6DF"/>
<path d="M9.01861 11.8341H2.23153C0.99909 11.8341 0 12.9538 0 14.335V20.3654C0 21.7467 0.99909 22.8664 2.23153 22.8664H9.01861C10.2511 22.8664 11.2501 21.7467 11.2501 20.3654V14.335C11.2501 12.9538 10.2511 11.8341 9.01861 11.8341Z" fill="#FED6DF"/>
<path d="M9.01861 23.4009H2.23153C0.99909 23.4009 0 24.5206 0 25.9018V31.9322C0 33.3135 0.99909 34.4332 2.23153 34.4332H9.01861C10.2511 34.4332 11.2501 33.3135 11.2501 31.9322V25.9018C11.2501 24.5206 10.2511 23.4009 9.01861 23.4009Z" fill="#FED6DF"/>
<path d="M9.01861 34.9677H2.23153C0.99909 34.9677 0 36.0874 0 37.4687V43.4991C0 44.8803 0.99909 46 2.23153 46H9.01861C10.2511 46 11.2501 44.8803 11.2501 43.4991V37.4687C11.2501 36.0874 10.2511 34.9677 9.01861 34.9677Z" fill="#FED6DF"/>
<path d="M32.7686 23.2446H25.9815C24.7491 23.2446 23.75 24.3643 23.75 25.7455V31.7759C23.75 33.1572 24.7491 34.2769 25.9815 34.2769H32.7686C34.0011 34.2769 35.0001 33.1572 35.0001 31.7759V25.7455C35.0001 24.3643 34.0011 23.2446 32.7686 23.2446Z" fill="#FED6DF"/>
<path d="M10.8852 5.39264C10.8852 8.37091 8.45889 10.7853 5.46582 10.7853C2.47275 10.7853 0.0463867 8.37091 0.0463867 5.39264C0.0463867 2.41437 2.47275 0 5.46582 0C8.45889 0 10.8852 2.41437 10.8852 5.39264Z" fill="white"/>
</g>
<defs>
<clipPath id="clip0_512_105">
<rect width="35" height="46" fill="white"/>
</clipPath>
</defs>
</svg>
