<svg width="126" height="33" viewBox="0 0 126 33" fill="none" xmlns="http://www.w3.org/2000/svg">
<path d="M1.58936 32.7764C1.3387 32.7764 1.04248 32.5884 0.700684 32.2124C0.301921 31.7909 0.102539 31.3693 0.102539 30.9478C0.102539 30.7427 0.205078 30.4408 0.410156 30.042C0.888672 29.0622 1.86279 28.2874 3.33252 27.7178C3.81104 27.5355 4.05029 27.4159 4.05029 27.3589C3.61735 24.4992 3.3724 22.625 3.31543 21.7363C3.23568 20.7565 3.1958 19.6457 3.1958 18.4038C3.1958 15.6125 3.26986 13.3737 3.41797 11.6875C3.60026 9.56836 3.91357 7.02197 4.35791 4.04834C4.5402 2.7723 4.67692 1.9235 4.76807 1.50195C4.87061 1.06901 5.0472 0.761393 5.29785 0.579102C5.5485 0.39681 5.99854 0.305664 6.64795 0.305664C7.32015 0.305664 8.02653 0.43099 8.76709 0.681641C9.91781 1.11458 10.6925 1.67285 11.0913 2.35645C11.2052 2.51595 11.2622 2.86914 11.2622 3.41602C11.2622 4.111 11.1084 5.60352 10.8008 7.89355C10.5273 10.0469 10.3451 11.6875 10.2539 12.8154C10.1742 13.9434 10.1343 15.208 10.1343 16.6094C10.1343 19.1387 10.2368 21.1553 10.4419 22.6592C10.8065 25.3594 11.0457 26.8006 11.1597 26.9829C11.2166 27.0171 11.4445 27.0456 11.8433 27.0684C12.5952 27.1253 14.0422 27.4215 16.1841 27.957C18.7476 28.6976 21.368 29.1989 24.0454 29.4609C24.4556 29.5065 24.991 29.5293 25.6519 29.5293C27.2697 29.5293 28.3862 29.4723 29.0015 29.3584C30.5965 29.0964 31.5251 28.6292 31.7871 27.957C31.901 27.7064 32.0036 27.5811 32.0947 27.5811C32.3112 27.5811 32.5391 27.826 32.7783 28.3159C32.9378 28.6691 33.0176 29.1134 33.0176 29.6489C33.0176 29.9224 32.9777 30.1559 32.8979 30.3496C32.522 31.2155 31.5535 31.7909 29.9927 32.0757C28.9673 32.2124 27.959 32.2808 26.9678 32.2808C25.931 32.2808 24.6094 32.1668 23.0029 31.939C21.6243 31.7453 20.6901 31.5687 20.2002 31.4092C19.7217 31.2611 18.5596 30.925 16.7139 30.4009C15.3581 30.0135 14.2244 29.7458 13.313 29.5977C12.4015 29.4609 11.3704 29.3926 10.2197 29.3926C7.08659 29.3926 4.61995 30.2357 2.81982 31.9219C2.26156 32.446 1.91406 32.7251 1.77734 32.7593L1.58936 32.7764ZM22.6358 25.9575C22.3396 25.9575 22.032 25.929 21.713 25.8721C19.685 25.4847 18.1925 24.334 17.2354 22.4199C16.6658 21.1667 16.381 19.828 16.381 18.4038C16.381 17.1961 16.586 15.9258 16.9962 14.5928C17.7481 12.4964 18.8191 11.3229 20.2091 11.0723C20.4256 11.0381 20.5509 10.9469 20.5851 10.7988C20.7332 10.3203 21.3712 10.0811 22.4991 10.0811C23.7068 10.0811 24.7322 10.4115 25.5753 11.0723L25.8487 11.2773C28.0362 11.266 30.2237 11.2432 32.4112 11.209C32.9923 11.209 33.2999 11.4653 33.3341 11.978C33.2885 12.4338 33.0606 12.6673 32.6505 12.6787C28.9135 12.6787 27.045 12.7129 27.045 12.7812C27.7514 14.0117 28.1046 15.4814 28.1046 17.1904C28.1046 18.2272 27.9793 19.2868 27.7286 20.3691C27.2501 22.3516 26.5095 23.8099 25.5069 24.7441C24.698 25.5531 23.741 25.9575 22.6358 25.9575ZM22.858 23.5479C22.9605 23.5479 23.1941 23.377 23.5587 23.0352C24.4018 22.2148 25.0398 21.0413 25.4728 19.5146C25.7462 18.5348 25.8829 17.4867 25.8829 16.3701C25.8829 15.6182 25.843 15.0428 25.7633 14.644C25.6835 14.2453 25.5297 13.7952 25.3019 13.2939C25.2791 13.2939 25.2677 13.2826 25.2677 13.2598C25.0854 12.8952 24.9031 12.6958 24.7208 12.6616C24.5385 12.6274 24.3676 12.6104 24.2081 12.6104C23.9347 12.6104 23.7979 12.6217 23.7979 12.6445L23.8834 13.1572C23.8834 13.5332 23.8093 14.1029 23.6612 14.8662C22.989 17.8285 22.6529 20.1014 22.6529 21.6851C22.6529 22.118 22.6928 22.625 22.7726 23.2061C22.7953 23.4339 22.8238 23.5479 22.858 23.5479ZM37.2395 26.7949C36.8065 26.7949 36.4305 26.7721 36.1115 26.7266C35.4849 26.6012 34.7557 26.3164 33.924 25.8721C33.5139 25.6442 33.1436 25.3423 32.8132 24.9663C32.4828 24.5903 32.272 24.2201 32.1809 23.8555C31.3264 22.1465 30.6542 19.771 30.1643 16.729C29.5262 12.8211 29.2072 9.82471 29.2072 7.73975C29.2072 6.68018 29.3098 5.97949 29.5148 5.6377C29.7655 5.09082 30.4263 4.81738 31.4973 4.81738C32.1467 4.81738 32.8189 4.94271 33.5139 5.19336C34.8013 5.66048 35.5419 6.35547 35.7355 7.27832C35.8039 7.62012 35.8723 8.21257 35.9406 9.05566C36.1799 12.2458 36.4419 14.6383 36.7268 16.2334C37.3078 19.5716 37.8547 21.7876 38.3674 22.8813C38.5497 23.2801 38.675 23.4795 38.7434 23.4795C38.7889 23.4795 39.1535 22.7332 39.8371 21.2407C41.5803 17.3784 42.8221 12.5876 43.5627 6.86816L43.6994 4.47559C43.745 3.24512 43.802 2.61849 43.8703 2.5957C43.9387 2.57292 44.0184 2.56152 44.1096 2.56152C44.44 2.56152 44.7476 2.72103 45.0324 3.04004C45.2375 3.17676 45.34 3.97428 45.34 5.43262C45.34 8.63411 44.7191 12.223 43.4772 16.1992C42.8734 18.3184 42.1613 20.3236 41.341 22.2148C41.0904 22.7161 40.9081 23.1377 40.7941 23.4795C40.3612 24.391 39.951 25.1429 39.5637 25.7354C39.2447 26.2367 38.8003 26.5671 38.2307 26.7266C38.0256 26.7721 37.6952 26.7949 37.2395 26.7949ZM52.8343 26.4702C51.4671 26.4702 50.1113 25.9746 48.7669 24.9834C48.0377 24.4593 47.3427 23.5479 46.6819 22.249C46.0325 20.9502 45.7078 19.4919 45.7078 17.874C45.7078 13.5218 46.6819 10.2861 48.6302 8.16699C49.2454 7.55176 49.929 7.00488 50.681 6.52637C51.4443 6.16178 52.2077 5.97949 52.971 5.97949C53.9052 5.97949 54.8395 6.25293 55.7737 6.7998C56.8903 7.52897 57.5966 8.3265 57.8929 9.19238C57.9954 9.52279 58.0467 9.88167 58.0467 10.269C58.0467 10.7476 57.984 11.1862 57.8587 11.585C57.0156 13.8408 55.318 15.8631 52.7659 17.6519C52.652 17.7316 52.5722 17.8057 52.5267 17.874C52.4811 17.9424 52.4583 18.4722 52.4583 19.4634C52.4583 20.0558 52.5438 20.7622 52.7146 21.5825C52.9539 22.7218 53.1533 23.5592 53.3128 24.0947C53.3584 24.4137 53.4495 24.5732 53.5862 24.5732C54.7369 24.5732 56.4744 22.3573 58.7986 17.9253C59.3113 16.9455 59.6474 16.3587 59.8069 16.165C59.8981 16.0511 59.9835 15.9884 60.0633 15.9771C60.7583 16.0112 61.1058 16.1821 61.1058 16.4897C61.1058 16.5353 60.9463 16.9284 60.6272 17.6689C60.012 19.0703 59.5449 20.0957 59.2259 20.7451C57.8359 23.4795 56.5485 25.1999 55.3636 25.9062C54.6686 26.2822 53.8255 26.4702 52.8343 26.4702ZM52.7488 15.6865L53.2103 15.3105C54.5547 14.1029 55.5345 12.6673 56.1497 11.0039C56.275 10.6507 56.3377 10.2747 56.3377 9.87598C56.3377 9.1582 56.2067 8.66829 55.9446 8.40625C55.8877 8.34928 55.8307 8.3208 55.7737 8.3208C55.7054 8.33219 55.6028 8.42904 55.4661 8.61133C55.2155 8.86198 55.0104 9.14681 54.8509 9.46582C54.5774 9.98991 54.2413 10.7874 53.8426 11.8584C53.4438 12.9294 53.1533 13.8294 52.971 14.5586C52.914 14.8776 52.8628 15.0998 52.8172 15.2251C52.783 15.3504 52.7659 15.4416 52.7659 15.4985C52.7659 15.5555 52.7545 15.6068 52.7317 15.6523C52.7317 15.6751 52.7374 15.6865 52.7488 15.6865ZM67.3524 29.7344C65.6207 29.7344 64.0199 29.2331 62.5502 28.2305C61.2742 27.3646 60.3969 26.1968 59.9184 24.7271C59.4512 23.2459 59.2177 21.3091 59.2177 18.9165C59.4341 12.8553 60.414 8.10433 62.1571 4.66357C62.7951 3.28499 63.5585 2.32227 64.4472 1.77539C65.9397 0.829753 67.4322 0.356934 68.9247 0.356934C69.9387 0.356934 70.8616 0.590495 71.6933 1.05762C73.0832 1.70703 73.7782 2.96598 73.7782 4.83447C73.7782 5.71175 73.6073 6.68018 73.2655 7.73975C71.8756 12.1034 70.1837 15.2821 68.1898 17.2759C67.2898 18.1646 66.5492 18.8026 65.9682 19.1899C66.0251 21.5711 66.1846 23.377 66.4467 24.6074C66.6176 25.3252 66.8568 26.043 67.1645 26.7607C67.3012 27.0798 67.3866 27.2393 67.4208 27.2393C67.5575 27.2393 67.8367 27.0741 68.2582 26.7437C68.8962 26.2537 69.614 25.4106 70.4115 24.2144C71.5281 22.4142 72.4338 20.4546 73.1288 18.3354C73.6073 16.8088 73.858 15.9827 73.8808 15.8574C73.8922 15.8118 73.9605 15.7891 74.0858 15.7891C74.2226 15.7891 74.4105 15.8118 74.6498 15.8574C74.9574 15.9258 75.191 15.9771 75.3505 16.0112C75.5214 16.0454 75.6239 16.0796 75.6581 16.1138C75.6923 16.1479 75.7094 16.1992 75.7094 16.2676C75.5613 16.9512 75.0884 18.4494 74.2909 20.7622C73.9833 21.6281 73.4478 22.8301 72.6845 24.3682C72.149 25.3936 71.6192 26.305 71.0951 27.1025C69.9786 28.8571 68.731 29.7344 67.3524 29.7344ZM66.2074 16.2334C66.2188 16.2334 66.2872 16.1707 66.4125 16.0454C66.5492 15.9087 66.7258 15.7264 66.9423 15.4985C67.1588 15.2593 67.3581 15.02 67.5404 14.7808C70.2406 10.3488 71.5907 6.95931 71.5907 4.6123C71.5907 4.31608 71.5736 4.01416 71.5395 3.70654C71.5053 3.38753 71.4597 3.12549 71.4027 2.92041C71.3458 2.71533 71.2945 2.61279 71.2489 2.61279C71.1692 2.61279 70.947 2.81217 70.5824 3.21094C70.3432 3.47298 70.0071 4.07113 69.5741 5.00537C69.3463 5.64339 69.0045 6.4637 68.5487 7.46631C67.6715 9.56266 66.9879 11.8698 66.4979 14.3877C66.3043 15.3789 66.2074 15.9941 66.2074 16.2334ZM90.0054 32.8789C89.4813 32.8789 88.9116 32.7764 88.2964 32.5713C85.3569 31.6598 83.5226 28.9255 82.7935 24.3682C82.7137 23.9352 82.6567 23.0238 82.6226 21.6338L82.3149 22.1123C81.4263 23.5479 80.606 24.391 79.854 24.6416C79.5806 24.7327 79.2673 24.7783 78.9141 24.7783C78.2077 24.7783 77.4842 24.6074 76.7437 24.2656C74.408 23.1377 73.2402 21.0926 73.2402 18.1304C73.2402 16.3986 73.5422 14.8206 74.146 13.3965C75.1144 11.0837 76.3905 9.6709 77.9741 9.1582C78.3501 9.02148 78.7546 8.95312 79.1875 8.95312C80.3838 8.95312 81.6826 9.39746 83.084 10.2861C83.3688 10.4684 83.6593 10.6906 83.9556 10.9526C84.2518 11.2147 84.4227 11.3457 84.4683 11.3457L84.7417 10.6279C84.7873 10.4229 84.9696 9.92155 85.2886 9.12402C86.0633 7.18717 87.1115 6.21875 88.4331 6.21875C88.8091 6.21875 89.2078 6.2985 89.6294 6.45801C91.1903 6.9821 91.9707 7.99609 91.9707 9.5C91.9707 10.0583 91.8739 10.6849 91.6802 11.3799C90.7459 14.6611 90.125 17.2417 89.8174 19.1216C89.5212 20.9901 89.373 23.1035 89.373 25.4619C89.373 26.681 89.3787 27.5469 89.3901 28.0596C89.4129 28.5723 89.5269 29.2502 89.7319 30.0933C89.8003 30.3781 89.8573 30.5205 89.9028 30.5205C89.994 30.5205 90.2788 30.3211 90.7573 29.9224C92.6258 28.1564 94.4259 24.1346 96.1577 17.8569C96.4312 16.786 96.6077 16.2334 96.6875 16.1992C96.7786 16.165 96.9894 16.1479 97.3198 16.1479C98.0946 16.1479 98.4819 16.2391 98.4819 16.4214C98.4819 16.786 98.1572 18.1247 97.5078 20.4375C96.3343 25.0062 94.8931 28.4925 93.1841 30.8965C92.2612 32.2181 91.2017 32.8789 90.0054 32.8789ZM79.2217 22.5908C80.042 22.0098 81.0788 20.8306 82.332 19.0532C82.7194 18.5291 82.9245 18.1418 82.9473 17.8911C83.084 16.9227 83.4258 15.3105 83.9727 13.0547C83.7562 12.5762 83.5967 12.2686 83.4941 12.1318C83.1637 11.7103 82.7422 11.3457 82.2295 11.0381C81.9674 10.8786 81.7681 10.7988 81.6313 10.7988C81.3693 10.7988 81.1016 11.3058 80.8281 12.3198C80.5205 13.4819 80.2357 14.6953 79.9736 15.96C79.7799 16.8714 79.6034 17.9652 79.4438 19.2412C79.2957 20.5173 79.2217 21.6338 79.2217 22.5908ZM103.02 27.6152C100.798 27.2165 99.0605 26.2139 97.8072 24.6074C96.554 22.9896 95.9273 20.785 95.9273 17.9937C95.9273 17.1619 95.9786 16.2676 96.0812 15.3105C96.3546 12.8952 96.8559 10.9355 97.5851 9.43164C98.2231 7.97331 99.0776 7.01628 100.149 6.56055C100.468 6.37826 100.764 6.26432 101.037 6.21875C101.311 6.17318 101.766 6.15039 102.404 6.15039C103.088 6.15039 103.629 6.19027 104.028 6.27002C104.427 6.34977 104.934 6.51497 105.549 6.76562C107.736 7.6543 108.83 8.8278 108.83 10.2861C108.83 11.1748 108.648 12.0065 108.283 12.7812C108.09 13.2028 107.879 13.4136 107.651 13.4136C107.264 13.4136 106.916 13.2598 106.608 12.9521C106.552 10.6279 106.46 9.46582 106.335 9.46582C106.267 9.46582 106.056 9.60254 105.703 9.87598C104.279 10.9697 103.35 13.2256 102.917 16.6436C102.826 17.4639 102.78 18.3981 102.78 19.4463C102.78 20.9388 102.889 22.0439 103.105 22.7617C103.618 24.4935 103.914 25.3594 103.994 25.3594C104.085 25.3594 104.546 25.0859 105.378 24.5391C107.497 22.8073 109.166 20.4147 110.385 17.3613C110.602 16.8258 110.739 16.5353 110.796 16.4897C110.864 16.4442 110.966 16.4214 111.103 16.4214C111.354 16.4214 111.576 16.4613 111.77 16.541C111.906 16.6777 111.975 16.7917 111.975 16.8828C111.906 17.2588 111.553 18.2101 110.915 19.7368C110.38 21.0015 109.827 22.0838 109.257 22.9839C107.708 25.4106 106.233 26.8975 104.831 27.4443C104.626 27.5355 104.375 27.5868 104.079 27.5981L103.02 27.6152ZM117.093 26.4702C115.726 26.4702 114.37 25.9746 113.026 24.9834C112.297 24.4593 111.602 23.5479 110.941 22.249C110.292 20.9502 109.967 19.4919 109.967 17.874C109.967 13.5218 110.941 10.2861 112.889 8.16699C113.505 7.55176 114.188 7.00488 114.94 6.52637C115.703 6.16178 116.467 5.97949 117.23 5.97949C118.164 5.97949 119.099 6.25293 120.033 6.7998C121.149 7.52897 121.856 8.3265 122.152 9.19238C122.255 9.52279 122.306 9.88167 122.306 10.269C122.306 10.7476 122.243 11.1862 122.118 11.585C121.275 13.8408 119.577 15.8631 117.025 17.6519C116.911 17.7316 116.831 17.8057 116.786 17.874C116.74 17.9424 116.717 18.4722 116.717 19.4634C116.717 20.0558 116.803 20.7622 116.974 21.5825C117.213 22.7218 117.412 23.5592 117.572 24.0947C117.618 24.4137 117.709 24.5732 117.845 24.5732C118.996 24.5732 120.734 22.3573 123.058 17.9253C123.571 16.9455 123.907 16.3587 124.066 16.165C124.157 16.0511 124.243 15.9884 124.322 15.9771C125.017 16.0112 125.365 16.1821 125.365 16.4897C125.365 16.5353 125.205 16.9284 124.886 17.6689C124.271 19.0703 123.804 20.0957 123.485 20.7451C122.095 23.4795 120.808 25.1999 119.623 25.9062C118.928 26.2822 118.085 26.4702 117.093 26.4702ZM117.008 15.6865L117.469 15.3105C118.814 14.1029 119.794 12.6673 120.409 11.0039C120.534 10.6507 120.597 10.2747 120.597 9.87598C120.597 9.1582 120.466 8.66829 120.204 8.40625C120.147 8.34928 120.09 8.3208 120.033 8.3208C119.965 8.33219 119.862 8.42904 119.725 8.61133C119.475 8.86198 119.27 9.14681 119.11 9.46582C118.837 9.98991 118.501 10.7874 118.102 11.8584C117.703 12.9294 117.412 13.8294 117.23 14.5586C117.173 14.8776 117.122 15.0998 117.076 15.2251C117.042 15.3504 117.025 15.4416 117.025 15.4985C117.025 15.5555 117.014 15.6068 116.991 15.6523C116.991 15.6751 116.997 15.6865 117.008 15.6865Z" fill="#474F62"/>
</svg>
